<svg width="185" height="42" viewBox="0 0 185 42" fill="none" xmlns="http://www.w3.org/2000/svg">
<path d="M25.9999 4H13.9999V5.99999H25.9999V4Z" fill="#FDF8F8"/>
<path d="M15.9999 6H9.99994V7.99999H15.9999V6Z" fill="#FDF8F8"/>
<path d="M29.9999 6H23.9999V7.99999H29.9999V6Z" fill="#FDF8F8"/>
<path d="M9.99999 8H6V9.99999H9.99999V8Z" fill="#FDF8F8"/>
<path d="M13.9999 8H11.9999V9.99999H13.9999V8Z" fill="#FDF8F8"/>
<path d="M21.9999 8H17.9999V9.99999H21.9999V8Z" fill="#FDF8F8"/>
<path d="M27.9999 8H25.9999V9.99999H27.9999V8Z" fill="#FDF8F8"/>
<path d="M33.9999 8H29.9999V9.99999H33.9999V8Z" fill="#FDF8F8"/>
<path d="M5.99999 10H4V12H5.99999V10Z" fill="#FDF8F8"/>
<path d="M11.9999 10H9.99994V12H11.9999V10Z" fill="#FDF8F8"/>
<path d="M17.9999 10H15.9999V14H17.9999V10Z" fill="#FDF8F8"/>
<path d="M23.9999 10H21.9999V14H23.9999V10Z" fill="#FDF8F8"/>
<path d="M29.9999 10H27.9999V12H29.9999V10Z" fill="#FDF8F8"/>
<path d="M35.9999 10H33.9999V12H35.9999V10Z" fill="#FDF8F8"/>
<path d="M3.99999 12H2V14H3.99999V12Z" fill="#FDF8F8"/>
<path d="M9.99999 12H8V22H9.99999V12Z" fill="#FDF8F8"/>
<path d="M31.9999 12H29.9999V22H31.9999V12Z" fill="#FDF8F8"/>
<path d="M37.9999 12H35.9999V14H37.9999V12Z" fill="#FDF8F8"/>
<path d="M1.99999 14H0V20H1.99999V14Z" fill="#FDF8F8"/>
<path d="M21.9999 14H17.9999V16H21.9999V14Z" fill="#FDF8F8"/>
<path d="M39.9998 14H37.9998V20H39.9998V14Z" fill="#FDF8F8"/>
<path d="M17.9999 16H15.9999V18H17.9999V16Z" fill="#FDF8F8"/>
<path d="M23.9999 16H21.9999V18H23.9999V16Z" fill="#FDF8F8"/>
<path d="M15.9999 18H13.9999V24H15.9999V18Z" fill="#FDF8F8"/>
<path d="M25.9999 18H23.9999V24H25.9999V18Z" fill="#FDF8F8"/>
<path d="M3.99999 20H2V22H3.99999V20Z" fill="#FDF8F8"/>
<path d="M37.9999 20H35.9999V22H37.9999V20Z" fill="#FDF8F8"/>
<path d="M5.99999 22H4V24H5.99999V22Z" fill="#FDF8F8"/>
<path d="M11.9999 22H9.99994V24H11.9999V22Z" fill="#FDF8F8"/>
<path d="M35.9999 22H33.9999V24H35.9999V22Z" fill="#FDF8F8"/>
<path d="M9.99999 24H6V26H9.99999V24Z" fill="#FDF8F8"/>
<path d="M13.9999 24H11.9999V28H13.9999V24Z" fill="#FDF8F8"/>
<path d="M23.9999 24H15.9999V26H23.9999V24Z" fill="#FDF8F8"/>
<path d="M11.9999 26H9.99994V28H11.9999V26Z" fill="#FDF8F8"/>
<path d="M15.9999 26H13.9999V30H15.9999V26Z" fill="#FDF8F8"/>
<path d="M21.9999 28H15.9999V30H21.9999V28Z" fill="#FDF8F8"/>
<path d="M21.9999 10H17.9999V12H21.9999V10Z" fill="#464646"/>
<path d="M19.9999 12H17.9999V14H19.9999V12Z" fill="#464646"/>
<path d="M21.9999 16H17.9999V22H21.9999V16Z" fill="#464646"/>
<path d="M17.9999 18H15.9999V24H17.9999V18Z" fill="#464646"/>
<path d="M23.9999 18H21.9999V20H23.9999V18Z" fill="#464646"/>
<path d="M19.9999 22H17.9999V24H19.9999V22Z" fill="#464646"/>
<path d="M21.9999 12H19.9999V14H21.9999V12Z" fill="#B4B4B4"/>
<path d="M23.9999 20H21.9999V24H23.9999V20Z" fill="#B4B4B4"/>
<path d="M21.9999 22H19.9999V24H21.9999V22Z" fill="#B4B4B4"/>
<path d="M30.0001 24H28.0001V34H30.0001V24Z" fill="#00B7EF"/>
<path d="M28.0001 26H26.0001V38H28.0001V26Z" fill="#00B7EF"/>
<path d="M32.0001 26H30.0001V32H32.0001V26Z" fill="#00B7EF"/>
<path d="M26.0001 30H24.0001V36H26.0001V30Z" fill="#00B7EF"/>
<path d="M34.0001 30H32.0001V36H34.0001V30Z" fill="#00B7EF"/>
<path d="M32 36H28.0001V38H32V36Z" fill="#00B7EF"/>
<path d="M31.9999 32H29.9999V36H31.9999V32Z" fill="#FDF8F8"/>
<path d="M29.9999 34H27.9999V36H29.9999V34Z" fill="#FDF8F8"/>
<path d="M58.2501 11.5V9.25H62.7501V11.5H58.2501ZM58.2501 18.25H56.0001V11.5H58.2501V18.25ZM62.7501 13.75V11.5H65.0001V13.75H62.7501ZM65.0001 18.25H62.7501V16H65.0001V18.25ZM62.7501 18.25V20.5H58.2501V18.25H62.7501ZM70.7001 20.5H68.4501V9.25H70.7001V13.75H75.2001V9.25H77.4501V20.5H75.2001V16H70.7001V20.5ZM80.9001 20.5V9.25H83.1501V13.75H87.6501V16H83.1501V18.25H87.6501V20.5H80.9001ZM94.4001 20.5H92.1501V9.25H94.4001V20.5ZM89.9001 18.25H87.6501V16H89.9001V18.25ZM105.8 20.5H103.55V9.25H105.8V13.75H108.05V16H105.8V20.5ZM112.55 20.5H110.3V13.75H108.05V11.5H110.3V9.25H112.55V20.5ZM118.25 11.5V9.25H122.75V11.5H118.25ZM118.25 18.25H116V11.5H118.25V18.25ZM122.75 13.75V11.5H125V13.75H122.75ZM125 18.25H122.75V16H125V18.25ZM122.75 18.25V20.5H118.25V18.25H122.75ZM130.7 11.5V9.25H135.2V11.5H130.7ZM130.7 20.5H128.45V11.5H130.7V13.75H135.2V11.5H137.45V20.5H135.2V16H130.7V20.5ZM143.15 11.5V9.25H147.65V11.5H143.15ZM143.15 20.5H140.9V11.5H143.15V13.75H147.65V11.5H149.9V20.5H147.65V16H143.15V20.5ZM155.6 20.5H153.35V9.25H155.6V13.75H157.85V16H155.6V20.5ZM160.1 11.5V9.25H162.35V11.5H160.1ZM157.85 13.75V11.5H160.1V13.75H157.85ZM160.1 18.25H157.85V16H160.1V18.25ZM160.1 20.5V18.25H162.35V20.5H160.1ZM168.05 11.5V9.25H172.55V11.5H168.05ZM168.05 20.5H165.8V11.5H168.05V13.75H172.55V11.5H174.8V20.5H172.55V16H168.05V20.5Z" fill="#FDF8F8"/>
<path d="M50.7501 32.5H49.5001V26.25H50.7501V28.75H52.0001V30H50.7501V32.5ZM54.5001 32.5H53.2501V28.75H52.0001V27.5H53.2501V26.25H54.5001V32.5ZM58.2001 32.5H56.9501V26.25H58.2001V28.75H60.7001V26.25H61.9501V32.5H60.7001V30H58.2001V32.5ZM66.9001 32.5H65.6501V27.5H64.4001V26.25H68.1501V27.5H66.9001V32.5ZM75.6001 31.25V32.5H70.6001V26.25H75.6001V27.5H71.8501V28.75H74.3501V30H71.8501V31.25H75.6001ZM79.3001 32.5H78.0501V26.25H81.8001V27.5H79.3001V28.75H81.8001V30H79.3001V32.5ZM81.8001 28.75V27.5H83.0501V28.75H81.8001ZM86.7501 27.5V26.25H89.2501V27.5H86.7501ZM86.7501 32.5H85.5001V27.5H86.7501V28.75H89.2501V27.5H90.5001V32.5H89.2501V30H86.7501V32.5ZM94.2001 32.5H92.9501V26.25H94.2001V28.75H95.4501V30H94.2001V32.5ZM96.7001 27.5V26.25H97.9501V27.5H96.7001ZM95.4501 28.75V27.5H96.7001V28.75H95.4501ZM96.7001 31.25H95.4501V30H96.7001V31.25ZM96.7001 32.5V31.25H97.9501V32.5H96.7001ZM102.9 32.5H101.65V27.5H100.4V26.25H104.15V27.5H102.9V32.5ZM107.85 32.5H106.6V26.25H107.85V28.75H109.1V30H107.85V32.5ZM111.6 32.5H110.35V28.75H109.1V27.5H110.35V26.25H111.6V32.5ZM115.3 31.25H117.8V32.5H114.05V26.25H117.8V27.5H115.3V28.75H117.8V30H115.3V31.25ZM119.05 28.75H117.8V27.5H119.05V28.75ZM119.05 31.25H117.8V30H119.05V31.25ZM122.75 32.5H121.5V26.25H122.75V28.75H125.25V26.25H126.5V32.5H125.25V30H122.75V32.5ZM128.95 32.5V26.25H130.2V28.75H132.7V30H130.2V31.25H132.7V32.5H128.95ZM136.45 32.5H135.2V26.25H136.45V32.5ZM133.95 31.25H132.7V30H133.95V31.25ZM138.9 23.75V22.5H140.15V23.75H138.9ZM142.65 23.75V22.5H143.9V23.75H142.65ZM140.15 23.75H142.65V25H140.15V23.75ZM140.15 32.5H138.9V26.25H140.15V28.75H141.4V30H140.15V32.5ZM143.9 32.5H142.65V28.75H141.4V27.5H142.65V26.25H143.9V32.5ZM151.3 32.5H150.05V26.25H151.3V28.75H152.55V30H151.3V32.5ZM153.8 27.5V26.25H155.05V27.5H153.8ZM152.55 28.75V27.5H153.8V28.75H152.55ZM153.8 31.25H152.55V30H153.8V31.25ZM153.8 32.5V31.25H155.05V32.5H153.8ZM158.75 31.25H161.25V32.5H157.5V26.25H161.25V27.5H158.75V28.75H161.25V30H158.75V31.25ZM162.5 28.75H161.25V27.5H162.5V28.75ZM162.5 31.25H161.25V30H162.5V31.25ZM169.95 31.25V32.5H164.95V26.25H169.95V27.5H166.2V28.75H168.7V30H166.2V31.25H169.95ZM173.65 27.5V26.25H176.15V27.5H173.65ZM173.65 31.25H172.4V27.5H173.65V31.25ZM176.15 28.75V27.5H177.4V28.75H176.15ZM177.4 31.25H176.15V30H177.4V31.25ZM176.15 31.25V32.5H173.65V31.25H176.15ZM182.35 32.5H181.1V27.5H179.85V26.25H183.6V27.5H182.35V32.5Z" fill="#C7C7C7"/>
</svg>
