<svg width="24" height="24" viewBox="0 0 24 24" fill="none" xmlns="http://www.w3.org/2000/svg">
<path d="M13 1H11V5H13V1Z" fill="black"/>
<path d="M11 5H9V9H11V5Z" fill="black"/>
<path d="M15 5H13V8H15V5Z" fill="black"/>
<path d="M15 8H14V9H15V8Z" fill="black"/>
<path d="M9 9H5V11H9V9Z" fill="black"/>
<path d="M19 9H15V11H19V9Z" fill="black"/>
<path d="M5 11H1V13H5V11Z" fill="black"/>
<path d="M23 11H19V13H23V11Z" fill="black"/>
<path d="M9 13H5V15H9V13Z" fill="black"/>
<path d="M19 13H15V15H19V13Z" fill="black"/>
<path d="M11 15H9V19H11V15Z" fill="black"/>
<path d="M15 15H13V19H15V15Z" fill="black"/>
<path d="M13 19H11V23H13V19Z" fill="black"/>
<path d="M13 5H11V9H13V5Z" fill="#A3B1C6"/>
<path d="M12 9H9V15H12V9Z" fill="#A3B1C6"/>
<path d="M13 10H12V19H13V10Z" fill="#A3B1C6"/>
<path d="M15 10H14V15H15V10Z" fill="#A3B1C6"/>
<path d="M9 11H5V13H9V11Z" fill="#A3B1C6"/>
<path d="M14 11H13V15H14V11Z" fill="#A3B1C6"/>
<path d="M19 11H15V13H19V11Z" fill="#A3B1C6"/>
<path d="M12 15H11V19H12V15Z" fill="#A3B1C6"/>
<path d="M14 8H13V11H14V8Z" fill="white"/>
<path d="M13 9H12V10H13V9Z" fill="white"/>
<path d="M15 9H14V10H15V9Z" fill="white"/>
</svg>
