<svg width="27" height="26" viewBox="0 0 27 26" fill="none" xmlns="http://www.w3.org/2000/svg">
<path fill-rule="evenodd" clip-rule="evenodd" d="M7.33827 1H20.2613V2.84615H7.33827V1ZM5.49211 2.84615H7.33827V4.69231H5.49211V2.84615ZM20.2613 2.84615H22.1075V4.69231H20.2613V2.84615ZM3.64596 4.69231H5.49211V6.53846H3.64596V4.69231ZM22.1075 4.69231H23.9537V6.53846H22.1075V4.69231ZM1.7998 6.53846H3.64596V19.4615H1.7998V6.53846ZM14.7229 6.53846H18.4152V8.38462H14.7229V6.53846ZM23.9537 6.53846H25.7998V19.4615H23.9537V6.53846ZM11.0306 8.38462H14.7229V10.2308H11.0306V8.38462ZM16.569 8.38462H18.4152V19.4615H16.569V8.38462ZM9.18442 10.2308H11.0306V12.0769H9.18442V10.2308ZM5.49211 12.0769H9.18442V13.9231H5.49211V12.0769ZM11.0306 12.0769H12.8767V15.7692H11.0306V12.0769ZM9.18442 13.9231H11.0306V17.6154H9.18442V13.9231ZM12.8767 15.7692H16.569V17.6154H12.8767V15.7692ZM3.64596 19.4615H5.49211V21.3077H3.64596V19.4615ZM22.1075 19.4615H23.9537V21.3077H22.1075V19.4615ZM5.49211 21.3077H7.33827V23.1538H5.49211V21.3077ZM20.2613 21.3077H22.1075V23.1538H20.2613V21.3077ZM7.33827 23.1538H20.2613V25H7.33827V23.1538Z" fill="#2D2D2D"/>
</svg>
