<svg width="24" height="24" viewBox="0 0 24 24" fill="none" xmlns="http://www.w3.org/2000/svg">
<g clip-path="url(#clip0_103_2503)">
<path fill-rule="evenodd" clip-rule="evenodd" d="M4 2H22V4H4V2ZM2 4H6V20H2V4ZM20 4H22V16H20V4ZM12 8H14V12H12V8ZM16 8H18V12H16V8ZM18 16H20V18H18V16ZM6 18H8V24H6V18ZM12 18H18V20H12V18ZM4 20H6V24H4V20ZM10 20H14V22H10V20ZM8 22H10V24H8V22Z" fill="#2D2D2D"/>
</g>
<defs>
<clipPath id="clip0_103_2503">
<rect width="24" height="24" fill="white"/>
</clipPath>
</defs>
</svg>
